<svg width="78" height="22" viewBox="0 0 78 22" fill="none" xmlns="http://www.w3.org/2000/svg">
<path d="M10.8458 13.3333C10.0484 13.3333 9.2828 13.2 8.5682 12.9533C8.3449 12.88 8.0961 12.9333 7.91746 13.1133L6.51391 14.58C4.70839 13.62 3.22824 12.08 2.30953 10.1867L3.71312 8.71333C3.89176 8.54 3.94279 8.28 3.87262 8.04667C3.63656 7.3 3.50896 6.5 3.50896 5.66667C3.50896 5.3 3.22187 5 2.87097 5H0.638C0.2871 5 0 5.3 0 5.66667C0 11.9267 4.85512 17 10.8458 17C11.1968 17 11.4839 16.7 11.4839 16.3333V14C11.4839 13.6333 11.1968 13.3333 10.8458 13.3333ZM10.2079 11H11.4839C11.4839 7.68667 8.9127 5 5.74193 5V6.33333C8.211 6.33333 10.2079 8.42 10.2079 11ZM7.65591 11H8.9319C8.9319 9.16 7.50279 7.66667 5.74193 7.66667V9C6.80101 9 7.65591 9.89333 7.65591 11Z" fill="#4D4D4F"/>
<path d="M18.9189 10.415H20.6589V8.39C20.6589 8.07 20.5889 7.845 20.4489 7.715C20.3189 7.575 20.0939 7.505 19.7739 7.505H18.9189C18.5989 7.505 18.3739 7.575 18.2439 7.715C18.1139 7.845 18.0489 8.07 18.0489 8.39V9.545C18.0489 9.855 18.1139 10.08 18.2439 10.22C18.3739 10.35 18.5989 10.415 18.9189 10.415ZM20.0739 15.5H16.9089C16.6889 15.5 16.5789 15.395 16.5789 15.185V14.15C16.5789 13.95 16.6889 13.85 16.9089 13.85H19.7739C20.0939 13.85 20.3189 13.785 20.4489 13.655C20.5789 13.515 20.6439 13.285 20.6439 12.965V12.065H18.6039C17.8139 12.065 17.2039 11.855 16.7739 11.435C16.3439 11.015 16.1289 10.415 16.1289 9.635V8.3C16.1289 7.51 16.3439 6.905 16.7739 6.485C17.2039 6.065 17.8139 5.855 18.6039 5.855H20.0739C20.8639 5.855 21.4739 6.065 21.9039 6.485C22.3339 6.905 22.5489 7.51 22.5489 8.3V13.055C22.5489 13.845 22.3339 14.45 21.9039 14.87C21.4739 15.29 20.8639 15.5 20.0739 15.5ZM25.8997 15.5H24.4897C24.3997 15.5 24.3347 15.475 24.2947 15.425C24.2647 15.365 24.2747 15.285 24.3247 15.185L27.4897 7.595H23.9647C23.7547 7.595 23.6497 7.49 23.6497 7.28V6.17C23.6497 5.96 23.7547 5.855 23.9647 5.855H29.2147C29.4247 5.855 29.5297 5.96 29.5297 6.17V7.43C29.5297 7.63 29.4597 7.9 29.3197 8.24L26.4097 15.215C26.3297 15.405 26.1597 15.5 25.8997 15.5ZM30.5297 15.185V13.76C30.5297 13.19 30.7747 12.705 31.2647 12.305L34.0247 9.965C34.4747 9.595 34.6997 9.195 34.6997 8.765V8.315C34.6997 8.005 34.6247 7.785 34.4747 7.655C34.3347 7.515 34.0997 7.445 33.7697 7.445H33.2447C32.9247 7.445 32.6997 7.515 32.5697 7.655C32.4397 7.785 32.3747 8.005 32.3747 8.315V8.795C32.3747 9.015 32.2697 9.125 32.0597 9.125H30.7847C30.5747 9.125 30.4697 9.015 30.4697 8.795V8.285C30.4697 7.505 30.6847 6.905 31.1147 6.485C31.5447 6.065 32.1547 5.855 32.9447 5.855H34.0847C34.8747 5.855 35.4847 6.065 35.9147 6.485C36.3447 6.905 36.5597 7.505 36.5597 8.285V8.885C36.5597 9.665 36.2597 10.31 35.6597 10.82L32.8397 13.22C32.7197 13.33 32.6597 13.45 32.6597 13.58V13.82H36.2447C36.4547 13.82 36.5597 13.925 36.5597 14.135V15.185C36.5597 15.395 36.4547 15.5 36.2447 15.5H30.8447C30.6347 15.5 30.5297 15.395 30.5297 15.185ZM37.9272 15.185V13.76C37.9272 13.19 38.1722 12.705 38.6622 12.305L41.4222 9.965C41.8722 9.595 42.0972 9.195 42.0972 8.765V8.315C42.0972 8.005 42.0222 7.785 41.8722 7.655C41.7322 7.515 41.4972 7.445 41.1672 7.445H40.6422C40.3222 7.445 40.0972 7.515 39.9672 7.655C39.8372 7.785 39.7722 8.005 39.7722 8.315V8.795C39.7722 9.015 39.6672 9.125 39.4572 9.125H38.1822C37.9722 9.125 37.8672 9.015 37.8672 8.795V8.285C37.8672 7.505 38.0822 6.905 38.5122 6.485C38.9422 6.065 39.5522 5.855 40.3422 5.855H41.4822C42.2722 5.855 42.8822 6.065 43.3122 6.485C43.7422 6.905 43.9572 7.505 43.9572 8.285V8.885C43.9572 9.665 43.6572 10.31 43.0572 10.82L40.2372 13.22C40.1172 13.33 40.0572 13.45 40.0572 13.58V13.82H43.6422C43.8522 13.82 43.9572 13.925 43.9572 14.135V15.185C43.9572 15.395 43.8522 15.5 43.6422 15.5H38.2422C38.0322 15.5 37.9272 15.395 37.9272 15.185ZM48.3846 11.48H45.5346C45.3246 11.48 45.2196 11.375 45.2196 11.165V10.28C45.2196 10.06 45.3246 9.95 45.5346 9.95H48.3846C48.5946 9.95 48.6996 10.06 48.6996 10.28V11.165C48.6996 11.375 48.5946 11.48 48.3846 11.48ZM49.9975 15.185V13.76C49.9975 13.19 50.2425 12.705 50.7325 12.305L53.4925 9.965C53.9425 9.595 54.1675 9.195 54.1675 8.765V8.315C54.1675 8.005 54.0925 7.785 53.9425 7.655C53.8025 7.515 53.5675 7.445 53.2375 7.445H52.7125C52.3925 7.445 52.1675 7.515 52.0375 7.655C51.9075 7.785 51.8425 8.005 51.8425 8.315V8.795C51.8425 9.015 51.7375 9.125 51.5275 9.125H50.2525C50.0425 9.125 49.9375 9.015 49.9375 8.795V8.285C49.9375 7.505 50.1525 6.905 50.5825 6.485C51.0125 6.065 51.6225 5.855 52.4125 5.855H53.5525C54.3425 5.855 54.9525 6.065 55.3825 6.485C55.8125 6.905 56.0275 7.505 56.0275 8.285V8.885C56.0275 9.665 55.7275 10.31 55.1275 10.82L52.3075 13.22C52.1875 13.33 52.1275 13.45 52.1275 13.58V13.82H55.7125C55.9225 13.82 56.0275 13.925 56.0275 14.135V15.185C56.0275 15.395 55.9225 15.5 55.7125 15.5H50.3125C50.1025 15.5 49.9975 15.395 49.9975 15.185ZM57.3949 15.185V13.76C57.3949 13.19 57.6399 12.705 58.1299 12.305L60.8899 9.965C61.3399 9.595 61.5649 9.195 61.5649 8.765V8.315C61.5649 8.005 61.4899 7.785 61.3399 7.655C61.1999 7.515 60.9649 7.445 60.6349 7.445H60.1099C59.7899 7.445 59.5649 7.515 59.4349 7.655C59.3049 7.785 59.2399 8.005 59.2399 8.315V8.795C59.2399 9.015 59.1349 9.125 58.9249 9.125H57.6499C57.4399 9.125 57.3349 9.015 57.3349 8.795V8.285C57.3349 7.505 57.5499 6.905 57.9799 6.485C58.4099 6.065 59.0199 5.855 59.8099 5.855H60.9499C61.7399 5.855 62.3499 6.065 62.7799 6.485C63.2099 6.905 63.4249 7.505 63.4249 8.285V8.885C63.4249 9.665 63.1249 10.31 62.5249 10.82L59.7049 13.22C59.5849 13.33 59.5249 13.45 59.5249 13.58V13.82H63.1099C63.3199 13.82 63.4249 13.925 63.4249 14.135V15.185C63.4249 15.395 63.3199 15.5 63.1099 15.5H57.7099C57.4999 15.5 57.3949 15.395 57.3949 15.185ZM64.4324 8.54V7.31C64.4324 7.14 64.5074 7.01 64.6574 6.92L66.0224 6.065C66.2524 5.925 66.4474 5.855 66.6074 5.855H67.8074C68.0174 5.855 68.1224 5.96 68.1224 6.17V15.185C68.1224 15.305 68.0974 15.39 68.0474 15.44C68.0074 15.48 67.9324 15.5 67.8224 15.5H66.5324C66.3224 15.5 66.2174 15.395 66.2174 15.185V7.88L64.7474 8.72C64.5374 8.81 64.4324 8.75 64.4324 8.54ZM72.6822 13.85H73.5672C73.8872 13.85 74.1122 13.785 74.2422 13.655C74.3722 13.515 74.4372 13.285 74.4372 12.965V8.39C74.4372 8.07 74.3722 7.845 74.2422 7.715C74.1122 7.575 73.8872 7.505 73.5672 7.505H72.6822C72.3622 7.505 72.1372 7.575 72.0072 7.715C71.8772 7.845 71.8122 8.07 71.8122 8.39V12.965C71.8122 13.285 71.8772 13.515 72.0072 13.655C72.1372 13.785 72.3622 13.85 72.6822 13.85ZM73.8672 15.5H72.3672C71.5772 15.5 70.9672 15.29 70.5372 14.87C70.1072 14.45 69.8922 13.845 69.8922 13.055V8.3C69.8922 7.51 70.1072 6.905 70.5372 6.485C70.9672 6.065 71.5772 5.855 72.3672 5.855H73.8672C74.6472 5.855 75.2522 6.07 75.6822 6.5C76.1122 6.92 76.3272 7.52 76.3272 8.3V13.055C76.3272 13.835 76.1122 14.44 75.6822 14.87C75.2522 15.29 74.6472 15.5 73.8672 15.5Z" fill="#4D4D4F"/>
</svg>
